<svg width="22" height="22" viewBox="0 0 22 22" fill="none" xmlns="http://www.w3.org/2000/svg">
<path d="M0.850681 21.9937C0.739371 21.9943 0.629029 21.973 0.525981 21.9309C0.422934 21.8888 0.329209 21.8268 0.250179 21.7484C0.170906 21.6697 0.107985 21.5762 0.0650461 21.4731C0.0221071 21.3701 0 21.2595 0 21.1479C0 21.0362 0.0221071 20.9257 0.0650461 20.8226C0.107985 20.7195 0.170906 20.626 0.250179 20.5474L20.5488 0.248736C20.7081 0.089473 20.9241 0 21.1493 0C21.3746 0 21.5906 0.089473 21.7498 0.248736C21.9091 0.407999 21.9986 0.624006 21.9986 0.849237C21.9986 1.07447 21.9091 1.29048 21.7498 1.44974L1.45118 21.7484C1.37215 21.8268 1.27843 21.8888 1.17538 21.9309C1.07233 21.973 0.961991 21.9943 0.850681 21.9937Z" fill="white"/>
<path d="M21.1493 21.9937C21.038 21.9943 20.9277 21.973 20.8246 21.9309C20.7216 21.8888 20.6279 21.8268 20.5488 21.7484L0.250201 1.44974C0.0909377 1.29048 0.00146484 1.07447 0.00146484 0.849237C0.00146485 0.624005 0.0909377 0.407999 0.250201 0.248736C0.409463 0.0894728 0.62547 1.67811e-09 0.850702 0C1.07593 -1.67811e-09 1.29194 0.0894728 1.4512 0.248736L21.7498 20.5474C21.8291 20.626 21.892 20.7195 21.935 20.8226C21.9779 20.9257 22 21.0362 22 21.1479C22 21.2595 21.9779 21.3701 21.935 21.4731C21.892 21.5762 21.8291 21.6697 21.7498 21.7484C21.6708 21.8268 21.5771 21.8888 21.474 21.9309C21.371 21.973 21.2607 21.9943 21.1493 21.9937Z" fill="white"/>
</svg>
