<svg width="28" height="18" viewBox="0 0 28 18" fill="none" xmlns="http://www.w3.org/2000/svg">
<path d="M26.4551 2.05078H1.02539C0.75344 2.05078 0.492628 1.94275 0.30033 1.75045C0.108032 1.55815 0 1.29734 0 1.02539C0 0.75344 0.108032 0.492627 0.30033 0.300329C0.492628 0.108031 0.75344 0 1.02539 0H26.4551C26.727 0 26.9878 0.108031 27.1801 0.300329C27.3724 0.492627 27.4805 0.75344 27.4805 1.02539C27.4805 1.29734 27.3724 1.55815 27.1801 1.75045C26.9878 1.94275 26.727 2.05078 26.4551 2.05078Z" fill="white"/>
<path d="M26.4551 9.78906H1.02539C0.75344 9.78906 0.492628 9.68103 0.30033 9.48873C0.108032 9.29643 0 9.03562 0 8.76367C0 8.49172 0.108032 8.23091 0.30033 8.03861C0.492628 7.84631 0.75344 7.73828 1.02539 7.73828H26.4551C26.727 7.73828 26.9878 7.84631 27.1801 8.03861C27.3724 8.23091 27.4805 8.49172 27.4805 8.76367C27.4805 9.03562 27.3724 9.29643 27.1801 9.48873C26.9878 9.68103 26.727 9.78906 26.4551 9.78906Z" fill="white"/>
<path d="M26.4551 17.5273H1.02539C0.75344 17.5273 0.492628 17.4193 0.30033 17.227C0.108032 17.0347 0 16.7739 0 16.502C0 16.23 0.108032 15.9692 0.30033 15.7769C0.492628 15.5846 0.75344 15.4766 1.02539 15.4766H26.4551C26.727 15.4766 26.9878 15.5846 27.1801 15.7769C27.3724 15.9692 27.4805 16.23 27.4805 16.502C27.4805 16.7739 27.3724 17.0347 27.1801 17.227C26.9878 17.4193 26.727 17.5273 26.4551 17.5273Z" fill="white"/>
</svg>
