<svg width="50" height="50" viewBox="0 0 50 50" fill="none" xmlns="http://www.w3.org/2000/svg">
<g clip-path="url(#clip0_40_21)">
<path d="M25 50C11.195 50 0 38.805 0 25C0 11.195 11.195 0 25 0C38.805 0 50 11.195 50 25C50 38.805 38.805 50 25 50Z" fill="#25D366"/>
<path fill-rule="evenodd" clip-rule="evenodd" d="M36.695 13.36C33.595 10.255 29.465 8.545 25.07 8.54C16.015 8.54 8.64 15.91 8.64 24.97C8.64 27.865 9.395 30.695 10.835 33.185L8.505 41.7L17.215 39.415C19.615 40.725 22.315 41.415 25.065 41.415H25.07C34.125 41.415 41.495 34.045 41.5 24.985C41.505 20.595 39.8 16.465 36.695 13.36ZM25.075 38.64H25.07C22.62 38.64 20.215 37.98 18.12 36.735L17.62 36.44L12.45 37.795L13.83 32.755L13.505 32.24C12.14 30.065 11.415 27.555 11.415 24.97C11.42 17.44 17.545 11.315 25.08 11.315C28.73 11.315 32.155 12.74 34.735 15.32C37.315 17.9 38.735 21.335 38.73 24.98C38.73 32.515 32.6 38.64 25.075 38.64ZM32.565 28.41C32.155 28.205 30.135 27.21 29.76 27.075C29.385 26.94 29.11 26.87 28.835 27.28C28.56 27.69 27.775 28.615 27.535 28.89C27.295 29.165 27.055 29.2 26.645 28.995C26.235 28.79 24.91 28.355 23.345 26.955C22.125 25.865 21.3 24.52 21.06 24.11C20.82 23.7 21.035 23.475 21.24 23.27C21.425 23.085 21.65 22.79 21.855 22.55C22.06 22.31 22.13 22.14 22.265 21.865C22.4 21.59 22.335 21.35 22.23 21.145C22.125 20.94 21.305 18.92 20.965 18.095C20.63 17.295 20.295 17.405 20.04 17.39C19.8 17.38 19.525 17.375 19.255 17.375C18.98 17.375 18.535 17.48 18.16 17.89C17.785 18.3 16.725 19.295 16.725 21.315C16.725 23.335 18.195 25.29 18.4 25.56C18.605 25.835 21.295 29.98 25.415 31.76C26.395 32.185 27.16 32.435 27.755 32.625C28.74 32.94 29.635 32.895 30.34 32.79C31.13 32.67 32.77 31.795 33.11 30.84C33.45 29.88 33.45 29.06 33.35 28.89C33.25 28.72 32.975 28.62 32.565 28.41Z" fill="white"/>
</g>
<defs>
<clipPath id="clip0_40_21">
<rect width="50" height="50" fill="white"/>
</clipPath>
</defs>
</svg>
