<svg width="40" height="40" viewBox="0 0 40 40" fill="none" xmlns="http://www.w3.org/2000/svg">
<path d="M20.4433 9.58398C14.9393 9.58398 10.4631 14.0599 10.4609 19.5614C10.4601 21.4468 10.9877 23.2829 11.9865 24.8716L12.2238 25.2491L11.2158 28.9311L14.9924 27.9405L15.3566 28.1567C16.8887 29.0658 18.6448 29.5469 20.4352 29.5476H20.4393C25.9391 29.5476 30.4152 25.0713 30.4174 19.5693C30.4185 16.9032 29.3815 14.3962 27.4977 12.5101C25.6138 10.6242 23.1084 9.5848 20.4433 9.58398ZM26.3125 23.8515C26.0626 24.5521 24.8641 25.1916 24.2877 25.2777C23.7709 25.355 23.117 25.3872 22.3984 25.1589C21.9627 25.0206 21.404 24.836 20.6883 24.527C17.6792 23.2276 15.7139 20.1979 15.564 19.9976C15.4141 19.7975 14.3391 18.3711 14.3391 16.8945C14.3391 15.4182 15.1141 14.6924 15.389 14.392C15.6639 14.0919 15.9889 14.0167 16.1889 14.0167C16.3889 14.0167 16.5891 14.0186 16.7638 14.0273C16.9479 14.0366 17.1952 13.9574 17.4388 14.5422C17.6887 15.1429 18.2886 16.6194 18.3636 16.7696C18.4387 16.9197 18.4886 17.0949 18.3887 17.2951C18.2887 17.4951 18.2387 17.6204 18.0887 17.7955C17.9388 17.9707 17.7737 18.1866 17.6387 18.321C17.4886 18.4706 17.3322 18.6329 17.5072 18.9331C17.6822 19.2336 18.2842 20.2158 19.176 21.0112C20.3217 22.0331 21.2883 22.3499 21.5882 22.5001C21.8882 22.6503 22.0632 22.6251 22.2382 22.425C22.4132 22.2248 22.9881 21.5491 23.188 21.2488C23.388 20.9486 23.5879 20.9986 23.8629 21.0987C24.1378 21.1989 25.6127 21.9245 25.9126 22.0746C26.2126 22.2247 26.4125 22.2999 26.4875 22.425C26.5625 22.55 26.5625 23.1506 26.3125 23.8515Z" fill="white"/>
<path d="M20.0004 0C8.95482 0 0 8.9532 0 19.9988C0 31.0444 8.95482 39.9992 20.0004 39.9992C31.0452 39.9992 40 31.0444 40 19.9988C40 8.9532 31.0452 0 20.0004 0ZM20.4393 31.5751C20.4396 31.5751 20.4389 31.5751 20.4393 31.5751H20.4344C18.4251 31.5743 16.4508 31.0702 14.6974 30.1138L8.33324 31.7832L10.0364 25.5623C8.98585 23.7416 8.43306 21.6765 8.43396 19.5605C8.43656 12.9414 13.8222 7.55621 20.4392 7.55621C23.6507 7.55751 26.665 8.80773 28.9315 11.0769C31.1981 13.3461 32.4457 16.3622 32.4445 19.5701C32.4417 26.1893 27.0557 31.5751 20.4393 31.5751Z" fill="white"/>
</svg>
